<svg width="114" height="113" viewBox="0 0 114 113" fill="none" xmlns="http://www.w3.org/2000/svg">
<ellipse cx="34.6388" cy="76.5567" rx="5.28513" ry="5.17024" fill="#00728F"/>
<ellipse cx="7.2937" cy="105.74" rx="5.28513" ry="5.17024" fill="#00728F"/>
<ellipse cx="16.3705" cy="89.3099" rx="4.71066" ry="4.59576" fill="#00728F"/>
<ellipse cx="5.34066" cy="78.2803" rx="4.71066" ry="4.59576" fill="#00728F"/>
<ellipse cx="32.9153" cy="94.8251" rx="4.71066" ry="4.59576" fill="#00728F"/>
<path d="M23.5949 69.728L8.46945 54.2588L18.4385 52.6545L69.0859 1.89258L76.3048 8.99696L26.1158 59.4152L23.5949 69.728Z" fill="white"/>
<rect x="59.9152" y="61.9652" width="50.5534" height="40.2129" fill="#FFCC34"/>
<rect x="95.5324" y="71.1564" width="14.0171" height="10.5703" fill="#00728F"/>
<rect x="58.077" y="71.3861" width="36.3065" height="8.27238" fill="white"/>
<path d="M105.413 50.7054L97.4856 45.8799H71.7494L60.9493 54.4969L58.077 64.148L110.124 63.5736V60.931L105.413 50.7054Z" fill="#FFCC34"/>
<rect x="7.3544" y="55.9904" width="21.5505" height="5.28513" transform="rotate(45.0038 7.3544 55.9904)" fill="#FFCC34"/>
<path d="M71.7493 1.64478L95.3261 1.6447L95.3542 8.3203L77.2642 8.3203L71.7493 1.64478Z" fill="#FFCC34"/>
<rect x="72.3238" y="38.7561" width="24.1278" height="5.05534" fill="#00728F"/>
<ellipse cx="66.4641" cy="104.131" rx="6.54896" ry="7.23833" fill="white"/>
<ellipse cx="102.771" cy="102.637" rx="8.38727" ry="8.73195" fill="white"/>
<path d="M104.788 100.34H101.111V104.016H104.788V100.34Z" fill="#00485A"/>
<path d="M68.022 102.178H64.3454V105.855H68.022V102.178Z" fill="#00485A"/>
<path d="M104.788 30.4846C105.275 30.4846 105.744 30.2916 106.089 29.9469L113.442 22.5937C113.787 22.249 113.98 21.7825 113.98 21.2931V12.1015C113.98 11.6144 113.787 11.1456 113.442 10.8009L106.089 3.44771C105.744 3.10303 105.278 2.91001 104.788 2.91001H97.435V1.0717C97.435 0.0560403 96.6124 -0.766602 95.5967 -0.766602H69.8604C69.3733 -0.766602 68.9045 -0.573579 68.5599 -0.228897L53.8534 14.4775L17.5055 50.8255L7.05471 52.5672V52.5994C6.67786 52.65 6.32861 52.8177 6.05287 53.082L0.537949 58.5969C-0.178991 59.3138 -0.178991 60.4789 0.537949 61.1958L17.0827 77.7405C17.7996 78.4575 18.9646 78.4575 19.6816 77.7405L25.1965 72.2256C25.4607 71.9499 25.6285 71.5983 25.6791 71.2215H25.7112L27.453 60.773L63.8078 24.4297L77.9766 10.2632H95.599C96.6147 10.2632 97.4373 9.44059 97.4373 8.42493V6.58662H104.03L110.305 12.8621V20.5325L104.028 26.808H91.9201C91.433 26.808 90.9642 27.001 90.6195 27.3457L81.968 35.9995H71.6988C70.6831 35.9995 69.8604 36.8222 69.8604 37.8378V44.7567C62.1097 47.7877 57.0061 55.2535 56.9923 63.5741V104.017C56.9923 109.093 61.1078 113.208 66.1838 113.208C71.2599 113.208 75.3754 109.093 75.3754 104.017H92.0856C93.0805 110.026 98.7563 114.093 104.768 113.1C110.777 112.105 114.844 106.43 113.851 100.418C113.596 98.8719 113.012 97.3989 112.144 96.0937V63.5741C112.13 55.2535 107.026 47.7877 99.2756 44.7567V37.8378C99.2756 36.8222 98.453 35.9995 97.4373 35.9995H87.1681L92.683 30.4846H104.788ZM18.3879 73.8433L4.44435 59.8975L7.36035 56.9815L21.3062 70.9273L18.3879 73.8433ZM24.4428 58.5969C24.1716 58.868 23.9924 59.2173 23.9303 59.5942L22.678 67.0991L11.184 55.605L18.6912 54.3527C19.0681 54.2907 19.4173 54.1114 19.6885 53.8403L55.154 18.3748L59.9083 23.1291L24.4428 58.5969ZM62.5072 20.5325L57.7552 15.7782L69.8627 3.67061L74.6148 8.42493L62.5072 20.5325ZM93.7584 6.58662H77.9743L74.2977 2.91001H93.7584V6.58662ZM108.465 69.089H60.6689V65.4124H108.465V69.089ZM104.788 91.3141V89.3104C104.788 88.2947 103.966 87.4721 102.95 87.4721H66.1838C65.1682 87.4721 64.3455 88.2947 64.3455 89.3104V95.0091C63.0082 95.2918 61.7512 95.8731 60.6689 96.7096V80.1189H93.7584V81.9572C93.7584 82.9728 94.5811 83.7955 95.5967 83.7955H108.465V92.6423C107.33 91.9828 106.084 91.5324 104.788 91.3141ZM93.7584 76.4422H60.6689V72.7656H93.7584V76.4422ZM108.465 80.1189H97.435V72.7656H108.465V80.1189ZM66.1838 109.532C63.1391 109.532 60.6689 107.062 60.6689 104.017C60.6689 100.972 63.1391 98.5019 66.1838 98.5019C69.2285 98.5019 71.6988 100.972 71.6988 104.017C71.6988 107.062 69.2308 109.532 66.1838 109.532ZM92.0856 100.34H74.5964C73.3992 97.6034 70.9473 95.6158 68.0221 95.0091V91.1487H101.112V91.3141C96.4929 92.1046 92.876 95.7215 92.0856 100.34ZM102.95 109.532C98.8896 109.532 95.5967 106.239 95.5967 102.179C95.5967 98.1182 98.8896 94.8253 102.95 94.8253C107.01 94.8253 110.303 98.1182 110.303 102.179C110.303 106.239 107.013 109.532 102.95 109.532ZM108.364 61.7358H60.77C61.7167 53.3669 68.7919 47.0385 77.2137 47.0294H91.9201C100.344 47.0385 107.417 53.3669 108.364 61.7358ZM95.5967 43.7043C94.3834 43.4745 93.1541 43.3573 91.9201 43.3527H77.2137C75.9797 43.3573 74.7503 43.4745 73.5371 43.7043V39.6761H95.5967V43.7043Z" fill="#00485A"/>
<path d="M11.0346 78.2804C11.0346 75.2357 8.56434 72.7655 5.51965 72.7655C2.47495 72.7655 0.00473022 75.2357 0.00473022 78.2804C0.00473022 81.3251 2.47495 83.7953 5.51965 83.7953C8.56664 83.7953 11.0346 81.3251 11.0346 78.2804ZM3.68134 78.2804C3.68134 77.2648 4.50398 76.4421 5.51965 76.4421C6.53531 76.4421 7.35795 77.2648 7.35795 78.2804C7.35795 79.2961 6.53531 80.1187 5.51965 80.1187C4.50398 80.1187 3.68134 79.2961 3.68134 78.2804Z" fill="#00485A"/>
<path d="M7.35795 98.5015C3.2976 98.5015 0.00473022 101.794 0.00473022 105.855C0.00473022 109.915 3.2976 113.208 7.35795 113.208C11.4183 113.208 14.7112 109.915 14.7112 105.855C14.7112 101.794 11.4206 98.5015 7.35795 98.5015ZM7.35795 109.531C5.32663 109.531 3.68134 107.886 3.68134 105.855C3.68134 103.823 5.32663 102.178 7.35795 102.178C9.38928 102.178 11.0346 103.823 11.0346 105.855C11.0346 107.886 9.38928 109.531 7.35795 109.531Z" fill="#00485A"/>
<path d="M16.5495 83.796C13.5048 83.796 11.0345 86.2662 11.0345 89.3109C11.0345 92.3556 13.5048 94.8259 16.5495 94.8259C19.5942 94.8259 22.0644 92.3556 22.0644 89.3109C22.0644 86.2662 19.5965 83.796 16.5495 83.796ZM16.5495 91.1492C15.5338 91.1492 14.7112 90.3266 14.7112 89.3109C14.7112 88.2953 15.5338 87.4726 16.5495 87.4726C17.5651 87.4726 18.3878 88.2953 18.3878 89.3109C18.3878 90.3266 17.5651 91.1492 16.5495 91.1492Z" fill="#00485A"/>
<path d="M33.0943 89.3103C30.0496 89.3103 27.5794 91.7805 27.5794 94.8252C27.5794 97.8699 30.0496 100.34 33.0943 100.34C36.139 100.34 38.6092 97.8699 38.6092 94.8252C38.6092 91.7805 36.1413 89.3103 33.0943 89.3103ZM33.0943 96.6635C32.0786 96.6635 31.256 95.8409 31.256 94.8252C31.256 93.8096 32.0786 92.9869 33.0943 92.9869C34.11 92.9869 34.9326 93.8096 34.9326 94.8252C34.9326 95.8409 34.11 96.6635 33.0943 96.6635Z" fill="#00485A"/>
<path d="M34.9326 69.0896C30.8722 69.0896 27.5794 72.3825 27.5794 76.4428C27.5794 80.5032 30.8722 83.796 34.9326 83.796C38.993 83.796 42.2858 80.5032 42.2858 76.4428C42.2858 72.3825 38.9953 69.0896 34.9326 69.0896ZM34.9326 80.1194C32.9013 80.1194 31.256 78.4742 31.256 76.4428C31.256 74.4115 32.9013 72.7662 34.9326 72.7662C36.9639 72.7662 38.6092 74.4115 38.6092 76.4428C38.6092 78.4742 36.9639 80.1194 34.9326 80.1194Z" fill="#00485A"/>
<path d="M22.0644 98.5015H18.3878V102.178H22.0644V98.5015Z" fill="#00485A"/>
<path d="M29.4176 104.017H25.741V107.693H29.4176V104.017Z" fill="#00485A"/>
</svg>
