<svg width="85" height="115" viewBox="0 0 85 115" fill="none" xmlns="http://www.w3.org/2000/svg">
<path d="M82.6938 70.6532V12.0665L42.4307 3.16016L2.02771 12.0665V62.3036L3.56554 77.7505L13.6313 92.919L42.4307 112.68L69.9718 94.3106L77.3813 86.2393L82.6938 70.6532Z" fill="white"/>
<path d="M72.9076 70.3758L74.3057 19.3038L41.7316 11.5107L11.1149 19.3038V70.3758L19.2234 87.0752L43.4093 102.522L66.6165 84.5703L72.9076 70.3758Z" fill="#00728F"/>
<rect x="28.7299" y="48.3887" width="27.6809" height="26.7189" fill="#FFCC34"/>
<path d="M42.5008 22.4951C43.7366 22.4951 44.7376 21.4988 44.7376 20.2686C44.7376 19.0412 43.7366 18.042 42.5008 18.042C41.2677 18.042 40.2639 19.0412 40.2639 20.2686C40.2639 21.4988 41.2677 22.4951 42.5008 22.4951Z" fill="white"/>
<path d="M38.7789 113.106C39.9085 113.858 41.2059 114.233 42.5033 114.233C43.7979 114.233 45.0924 113.858 46.2221 113.106L66.0768 99.9304C77.9265 92.0678 85.0005 78.9088 85.0005 64.731V11.3656C85.0005 10.3219 84.2735 9.41733 83.2474 9.19189L42.9842 0.285584C42.6655 0.216003 42.3327 0.216003 42.014 0.285584L1.75082 9.19189C0.727465 9.41733 0.000488281 10.3219 0.000488281 11.3656V64.7338C0.000488281 78.9115 7.07448 92.0706 18.9242 99.9332L38.7789 113.106ZM4.47697 64.7338V13.1496L42.5005 4.73874L80.5268 13.1496V64.7338C80.5268 77.417 74.1965 89.1928 63.5967 96.226L43.7419 109.402C42.9898 109.903 42.0168 109.903 41.2647 109.402L21.4099 96.226C10.8073 89.1928 4.47697 77.4197 4.47697 64.7338Z" fill="#00485A"/>
<path d="M41.2594 104.047C41.6341 104.294 42.0675 104.42 42.5009 104.42C42.9343 104.42 43.3648 104.294 43.7423 104.047L61.1142 92.5214C70.4698 86.3176 76.0535 75.9306 76.0535 64.7338V18.51C76.0535 17.4663 75.3265 16.5646 74.3004 16.3363L42.9846 9.41169C42.6658 9.33933 42.3359 9.33933 42.0144 9.41169L10.6986 16.3363C9.67522 16.5646 8.94824 17.4663 8.94824 18.51V64.7365C8.94824 75.9306 14.5319 86.3204 23.8875 92.5242L41.2594 104.047ZM13.4247 64.7338V20.2941L42.5037 13.8621L71.5826 20.2941V64.7338C71.5826 74.4361 66.7426 83.4398 58.6369 88.8169L42.5065 99.5184L26.3761 88.8169C18.2647 83.4398 13.4247 74.4361 13.4247 64.7338Z" fill="#00485A"/>
<path d="M50.6484 24.7887C65.0844 27.9616 64.419 27.8809 64.8719 27.8809C65.8981 27.8809 66.8236 27.1739 67.0529 26.1386C67.3213 24.9362 66.5579 23.7478 65.3528 23.4806L51.6159 20.4413C50.4108 20.1742 49.2168 20.9312 48.9484 22.1308C48.6828 23.3331 49.4433 24.5215 50.6484 24.7887Z" fill="white"/>
<path d="M29.0824 77.2698H55.9245C57.1604 77.2698 58.1614 76.2734 58.1614 75.0432V48.3243C58.1614 47.0941 57.1604 46.0977 55.9245 46.0977H53.6877V43.8712C53.6877 37.7202 48.6828 32.7383 42.5035 32.7383C36.3382 32.7383 31.3193 37.7342 31.3193 43.8712V46.0977H29.0824C27.8466 46.0977 26.8456 47.0941 26.8456 48.3243V75.0432C26.8456 76.2734 27.8466 77.2698 29.0824 77.2698ZM35.7902 43.8712C35.7902 40.189 38.8015 37.1914 42.5007 37.1914C46.2054 37.1914 49.2112 40.1834 49.2112 43.8712V46.0977H35.7902V43.8712ZM31.3193 50.5509H53.6877V72.8166H31.3193V50.5509Z" fill="#00485A"/>
<path d="M42.5008 55.0029C41.2649 55.0029 40.2639 55.9993 40.2639 57.2295V66.1358C40.2639 67.366 41.2649 68.3624 42.5008 68.3624C43.7366 68.3624 44.7376 67.366 44.7376 66.1358V57.2295C44.7376 55.9993 43.7366 55.0029 42.5008 55.0029Z" fill="#00485A"/>
</svg>
