<svg width="114" height="115" viewBox="0 0 114 115" fill="none" xmlns="http://www.w3.org/2000/svg">
<path d="M111.465 82.215V31.0759L110.201 28.0879L104.455 26.594H7.23344L1.94714 32.225L2.63666 83.2493L111.465 82.215Z" fill="white"/>
<path d="M100.318 9.35554L95.1468 3.49465L86.4129 2.34546V18.2043H90.4351V33.9483H86.4129V50.3818L95.1468 48.7729L100.318 41.533V9.35554Z" fill="#00728F"/>
<path d="M71.9331 63.1385H61.0158L60.2113 74.1707L54.5803 72.7917L42.8585 71.8724L34.8141 74.1707V61.6445L23.2073 63.1385L15.7375 68.4248L8.0379 83.1345H85.9533L79.2879 68.4248L71.9331 63.1385Z" fill="#00728F"/>
<path d="M42.2839 82.7892L44.8122 69.1137L51.4775 68.6541L53.6609 83.3638L42.2839 82.7892Z" fill="#FFCC34"/>
<path d="M78.8282 50.0371V34.2931L86.5278 33.7185L85.9532 50.0371H78.8282Z" fill="#FFCC34"/>
<path d="M78.8282 18.779V3.1499L86.5278 2.34546L85.9532 18.779H78.8282Z" fill="#FFCC34"/>
<path d="M24.4713 36.936L30.9068 32.7989V29.4663L40.3302 28.0872L47.9149 22.686L55.4995 28.0872L64.0036 30.5005V33.9481L68.4854 34.9824L72.1628 40.8433L68.4854 46.7041L64.0036 48.1981L55.4995 57.3916V60.4944L50.558 68.4238H44.3524L40.3302 61.9884V59.0005L36.5379 55.2081L32.6306 48.1981L27.2294 46.7041L23.3221 43.3715L24.4713 36.936Z" fill="white"/>
<path d="M112.5 82.675L1.83215 83.4795L3.44102 90.8343L8.38256 93.9372H49.5237V100.717L23.6668 107.383L24.2414 112.439H90.0903V106.808L65.2677 101.637L64.3483 94.7416L106.524 93.9372L111.81 88.8807L112.5 82.675Z" fill="white"/>
<path d="M69.1751 14.9867L59.0622 4.29923L45.042 2.57544L31.5964 7.97665L23.7819 21.767V37.5109L31.5964 32.9142V29.5815L36.8827 28.892L47.8001 23.0311L57.4533 28.892L63.0844 29.5815L64.0037 32.1097L72.0481 37.5109V23.0311L69.1751 14.9867Z" fill="#FFCC34"/>
<path d="M104.807 24.1366H102.968V13.1044C102.968 6.00695 97.1924 0.233398 90.0972 0.233398H77.2263V20.4592H88.2585V24.1366H73.4547C72.5055 10.8014 61.3789 0.233398 47.8069 0.233398C34.2326 0.233398 23.1085 10.8014 22.1592 24.1366H9.19404C4.1238 24.1366 0.000488281 28.2599 0.000488281 33.3302V86.6528C0.000488281 91.723 4.1238 95.8463 9.19404 95.8463H47.8069V99.8754L22.065 105.392V114.233H91.936V105.392L66.194 99.8754V95.8463H104.807C109.877 95.8463 114 91.723 114 86.6528V33.3302C114 28.2622 109.877 24.1366 104.807 24.1366ZM99.2908 13.1044V38.8463C99.2908 43.9166 95.1675 48.0399 90.0972 48.0399H88.2585V35.1689H91.936V16.7818H88.2585V3.91082H90.0972C95.1675 3.91082 99.2908 8.03643 99.2908 13.1044ZM80.9037 48.0399V35.1689H84.5811V48.0399H80.9037ZM80.9037 3.91082H84.5811V16.7818H80.9037V3.91082ZM88.2585 31.4915H77.2263V51.7173H90.0972C97.1924 51.7173 102.968 45.9437 102.968 38.8463V27.8141H104.807C107.848 27.8141 110.323 30.2894 110.323 33.3302V81.1367H87.6656L83.8916 71.7041C81.7265 66.2937 76.8057 62.3795 71.0436 61.4946L57.0005 59.3342V58.424C60.3837 56.4612 63.089 53.4595 64.6634 49.8487C69.5865 49.6832 73.5489 45.6518 73.5489 40.6873V27.8164H88.2585V31.4915ZM73.2179 81.1367L71.6757 73.421L68.0695 74.1427L69.467 81.1344H54.9457L54.0954 74.338L62.5166 76.0227V63.901L70.4828 65.1284C74.9647 65.8179 78.7938 68.861 80.4762 73.0693L83.7032 81.1367H73.2179ZM23.9405 73.421L22.396 81.1367H11.9108L15.1376 73.0693C16.8201 68.861 20.6492 65.8179 25.1311 65.1284L33.0972 63.9033V76.025L41.5163 74.3403L40.6659 81.1367H26.1447L27.5444 74.1427L23.9405 73.421ZM53.3783 68.5921L56.2076 62.9334L58.8392 63.3379V71.5409L53.6149 70.4974L53.3783 68.5921ZM47.8069 57.2334C39.6959 57.2334 33.0972 50.6347 33.0972 42.5237V31.4225C38.618 31.0065 43.7663 28.7265 47.8069 24.8882C51.8452 28.7288 56.9959 31.0088 62.5166 31.4225V42.5237C62.5166 50.6347 55.9179 57.2334 47.8069 57.2334ZM42.2908 60.0627C44.033 60.6098 45.8855 60.9108 47.8069 60.9108C49.7284 60.9108 51.5809 60.6121 53.323 60.0627V60.4765L50.3489 66.427H45.2672L42.2931 60.4765V60.0627H42.2908ZM39.4087 62.9311L42.2379 68.5898L42.0012 70.4928L36.7746 71.5363V63.3333L39.4087 62.9311ZM45.7545 70.1044H49.864L51.243 81.1367H44.3755L45.7545 70.1044ZM66.194 42.5237V35.5068C68.3292 36.2675 69.8714 38.2901 69.8714 40.685C69.8714 43.2018 68.166 45.3071 65.8585 45.9667C66.0745 44.8497 66.194 43.7005 66.194 42.5237ZM47.8069 3.91082C59.9746 3.91082 69.8714 13.8077 69.8714 25.9753V33.3785C68.7981 32.5648 67.5593 31.9581 66.194 31.6799V27.8141H64.3553C58.9173 27.8141 53.8057 25.6949 49.9605 21.852L47.8093 19.6961L45.6534 21.8497C41.8082 25.6949 36.6966 27.8118 31.2609 27.8118H29.4222V31.6753C28.0569 31.9558 26.8181 32.5625 25.7447 33.3739V25.973C25.7424 13.81 35.6415 3.91082 47.8069 3.91082ZM29.7554 45.9667C27.4478 45.3094 25.7424 43.2041 25.7424 40.685C25.7424 38.2901 27.2847 36.2675 29.4199 35.5068V42.5237C29.4199 43.7005 29.5417 44.8497 29.7554 45.9667ZM9.19404 27.8141H22.065V40.685C22.065 45.6495 26.0274 49.6809 30.9506 49.8464C32.5273 53.4572 35.2301 56.4589 38.6134 58.4217V59.3319L24.5702 61.4923C18.8105 62.3795 13.8851 66.2914 11.7223 71.7018L7.94833 81.1344H3.67791V33.3279C3.67791 30.2894 6.15327 27.8141 9.19404 27.8141ZM25.7424 108.366L47.8069 103.638V110.556H25.7424V108.366V108.366ZM88.2585 108.366V110.556H66.194V103.638L88.2585 108.366ZM62.5166 110.556H51.4843V95.8463H62.5166V110.556ZM104.807 92.1689H9.19404C6.15327 92.1689 3.67791 89.6936 3.67791 86.6528V84.8141H110.323V86.6528C110.323 89.6936 107.85 92.1689 104.807 92.1689Z" fill="#00485A"/>
<path d="M57.0002 37.0077C58.0157 37.0077 58.8389 36.1845 58.8389 35.169C58.8389 34.1535 58.0157 33.3303 57.0002 33.3303C55.9847 33.3303 55.1615 34.1535 55.1615 35.169C55.1615 36.1845 55.9847 37.0077 57.0002 37.0077Z" fill="#00485A"/>
<path d="M38.6132 37.0077C39.6287 37.0077 40.4519 36.1845 40.4519 35.169C40.4519 34.1535 39.6287 33.3303 38.6132 33.3303C37.5977 33.3303 36.7745 34.1535 36.7745 35.169C36.7745 36.1845 37.5977 37.0077 38.6132 37.0077Z" fill="#00485A"/>
<path d="M55.1616 42.5234C55.1616 46.5801 51.8634 49.8783 47.8067 49.8783C43.7501 49.8783 40.4519 46.5801 40.4519 42.5234H36.7745C36.7745 48.6073 41.7229 53.5557 47.8067 53.5557C53.8906 53.5557 58.839 48.6073 58.839 42.5234H55.1616Z" fill="#00485A"/>
</svg>
