<svg width="116" height="109" viewBox="0 0 116 109" fill="none" xmlns="http://www.w3.org/2000/svg">
<ellipse cx="58.0314" cy="55.634" rx="48.1952" ry="48.8508" fill="white"/>
<ellipse cx="58.0314" cy="54.6503" rx="35.7366" ry="35.4088" fill="#00728F"/>
<path d="M33.0786 59.1409C33.0786 60.3915 32.0636 61.4065 30.8129 61.4065C29.5623 61.4065 28.5473 60.3915 28.5473 59.1409C28.5473 57.8902 29.5623 56.8752 30.8129 56.8752C32.0636 56.8752 33.0786 57.8902 33.0786 59.1409Z" fill="white"/>
<path d="M7.78974 66.6037C10.9004 70.0384 10.7713 72.7821 10.5583 77.3247C10.4926 78.6863 10.4201 80.2315 10.4473 81.9012C10.581 89.9918 16.5124 91.3375 21.277 92.4183C25.3302 93.3381 29.1614 94.2081 31.4587 98.2137C35.3918 105.192 38.7336 110.761 46.473 108.282C49.1011 107.439 50.9816 106.642 52.4928 106.001C54.7629 105.038 56.0135 104.508 58.0005 104.508C59.9875 104.508 61.2381 105.038 63.5082 106.001C65.0194 106.642 66.8999 107.439 69.528 108.282C73.2028 109.46 76.1844 108.819 78.7151 106.581C81.0351 104.528 82.8453 101.175 84.5423 98.2137C86.8396 94.2081 90.6708 93.3381 94.724 92.4183C99.4886 91.3375 105.42 89.9918 105.551 81.9012C105.579 80.2292 105.506 78.6863 105.443 77.3247C105.23 72.7821 105.101 70.0407 108.211 66.606C112.933 61.3928 116.005 58.1416 116 54.5461C116.007 50.7081 112.226 46.9223 108.211 42.4907C105.101 39.0537 105.23 36.3123 105.443 31.7698C105.506 30.4081 105.579 28.863 105.551 27.1932C105.42 19.1027 99.4909 17.7569 94.724 16.6762C90.6708 15.7563 86.8396 14.8863 84.54 10.8807C82.8363 7.9082 81.0125 4.54602 78.7128 2.51375C76.1187 0.22094 73.1145 -0.334138 69.528 0.814533C66.8976 1.65735 65.0149 2.45484 63.5037 3.09602C61.2336 4.05891 59.9852 4.58906 58.0028 4.58906C56.0158 4.58906 54.7675 4.05891 52.4973 3.09602C50.9861 2.45484 49.1034 1.65735 46.473 0.814533C42.8865 -0.336404 39.8823 0.218675 37.2882 2.51149C34.9682 4.56188 33.1557 7.91953 31.4587 10.8784C29.1614 14.8818 25.1829 15.7541 20.9689 16.6739C16.0366 17.7523 9.89904 19.0959 9.76763 27.1909C9.73591 29.2209 9.89904 31.0448 10.044 32.6534C10.4179 36.8176 10.6444 39.3301 7.78748 42.4884C3.14068 47.6201 -0.0108022 50.9369 0.000525899 54.5393C-0.0130678 58.3501 3.65951 62.0453 7.78974 66.6037ZM11.1474 45.5289C15.3365 40.9002 14.9582 36.6975 14.5572 32.2478C14.4167 30.6777 14.2694 29.0533 14.2989 27.2634C14.3691 22.9361 16.6914 22.2473 21.9363 21.0987C26.4608 20.1086 32.0931 18.8784 35.3896 13.1305C38.72 7.71789 40.2176 3.56274 45.091 5.12375C47.5243 5.90539 49.2257 6.62586 50.7279 7.2625C53.1679 8.29563 55.0937 9.11352 58.0005 9.11578C60.905 9.11578 62.8308 8.29789 65.2709 7.2625C66.773 6.62586 68.4745 5.90313 70.91 5.12375C75.7721 3.565 77.2289 7.63633 80.6092 13.1305C83.8966 18.8602 89.3431 20.0973 93.7203 21.0896C98.861 22.2564 100.948 22.9044 101.02 27.2634C101.045 28.7905 100.979 30.1951 100.916 31.5545C100.696 36.2602 100.488 40.7054 104.851 45.5289C108.193 49.2196 111.471 52.6973 111.467 54.537V54.5483C111.471 56.5376 107.557 60.5749 104.851 63.561C100.485 68.3822 100.696 72.8274 100.916 77.5331C100.979 78.8925 101.045 80.2972 101.02 81.8242C100.948 86.1833 98.8588 86.8312 93.7203 87.998C89.3431 88.9904 83.8966 90.2274 80.6114 95.9572L80.3056 96.4896C76.4744 103.185 74.8998 105.239 70.9123 103.964C68.4813 103.182 66.7798 102.462 65.2777 101.825C62.8376 100.79 60.9096 99.9718 58.0005 99.9718C55.0914 99.9718 53.1634 100.79 50.7233 101.825C49.2235 102.462 47.522 103.182 45.091 103.962C40.238 105.516 38.7903 101.481 35.3918 95.9549C32.1044 90.2251 26.6579 88.9881 22.2807 87.9958C17.14 86.829 15.0511 86.1833 14.9786 81.8219C14.9536 80.2949 15.0193 78.8925 15.0828 77.5331C15.3048 72.8251 15.5133 68.38 11.1474 63.5587C8.09787 60.192 4.52498 56.4447 4.53177 54.5348C4.52498 52.5546 8.44904 48.5105 11.1474 45.5289Z" fill="#00485A"/>
<path d="M48.9381 38.7498C45.1908 38.7498 42.1412 41.7993 42.1412 45.5466C42.1412 49.294 45.1908 52.3435 48.9381 52.3435C52.6855 52.3435 55.735 49.294 55.735 45.5466C55.735 41.7993 52.6855 38.7498 48.9381 38.7498ZM48.9381 47.8122C47.6875 47.8122 46.6725 46.795 46.6725 45.5466C46.6725 44.296 47.6875 43.281 48.9381 43.281C50.1887 43.281 51.2037 44.296 51.2037 45.5466C51.2037 46.795 50.1887 47.8122 48.9381 47.8122Z" fill="#FFCC34"/>
<path d="M60.266 63.6716C60.266 67.419 63.3155 70.4685 67.0629 70.4685C70.8102 70.4685 73.8597 67.419 73.8597 63.6716C73.8597 59.9243 70.8102 56.8748 67.0629 56.8748C63.3155 56.8748 60.266 59.9243 60.266 63.6716ZM69.3285 63.6716C69.3285 64.92 68.3135 65.9373 67.0629 65.9373C65.8122 65.9373 64.7972 64.92 64.7972 63.6716C64.7972 62.421 65.8122 61.406 67.0629 61.406C68.3135 61.406 69.3285 62.4233 69.3285 63.6716Z" fill="#FFCC34"/>
<path d="M47.6804 70.0877C48.7158 70.7788 50.125 70.5046 50.8228 69.4602L68.9479 42.2728C69.6411 41.2306 69.3602 39.8259 68.3203 39.1304C67.2781 38.4348 65.8711 38.718 65.1778 39.7579L47.0528 66.9453C46.3595 67.9875 46.6405 69.3945 47.6804 70.0877Z" fill="#FFCC34"/>
<path d="M58.0005 93.1247C79.2384 93.1247 96.5161 75.8471 96.5161 54.6091C96.5161 33.3712 79.2384 16.0935 58.0005 16.0935C36.7625 16.0935 19.4849 33.3712 19.4849 54.6091C19.4849 75.8471 36.7625 93.1247 58.0005 93.1247ZM58.0005 20.6248C76.7395 20.6248 91.9848 35.8701 91.9848 54.6091C91.9848 73.3481 76.7395 88.5935 58.0005 88.5935C39.2615 88.5935 24.0161 73.3481 24.0161 54.6091C24.0161 35.8701 39.2615 20.6248 58.0005 20.6248Z" fill="#00485A"/>
<path d="M53.8453 30.0339C55.0778 29.8254 55.9116 28.6564 55.7031 27.4239C55.497 26.1914 54.3279 25.3599 53.0931 25.566C40.7342 27.6459 31.0328 37.3496 28.9552 49.7085C28.7241 51.086 29.7844 52.3503 31.1914 52.3503C32.2766 52.3503 33.2372 51.5663 33.423 50.4607C35.1811 40.0026 43.3895 31.7942 53.8453 30.0339Z" fill="white"/>
</svg>
