<svg width="88" height="83" viewBox="0 0 88 83" fill="none" xmlns="http://www.w3.org/2000/svg">
<path d="M63.8459 40.137L66.0507 27.853L63.216 23.5484L53.7667 23.2334L39.3829 25.9632L40.8528 41.6069L49.2521 42.0269L47.2573 46.7515L58.2814 46.4365L63.8459 40.137Z" fill="white"/>
<path d="M64.4758 19.2441L59.8562 15.5694L46.1023 15.0444L40.1178 19.7691L39.0679 24.8086L46.1023 27.4334H50.092L61.5361 24.8086L65.9457 26.4885L64.4758 19.2441Z" fill="#FFCC34"/>
<path d="M24.4741 75.2048L10.4052 55.3614L1.48096 62.2908L15.4448 81.3993L24.4741 75.2048Z" fill="#00728F"/>
<path d="M59.1213 56.3063L70.7754 50.5318L67.8356 47.592L62.1661 45.7021L48.7271 47.592L36.1282 49.4818L31.9285 56.3063H59.1213Z" fill="#00728F"/>
<path d="M32.1383 42.0273H38.5428L48.202 42.5523L50.0919 43.4972L45.7872 47.8019L39.6977 48.2218L36.128 48.6418L31.8234 56.5162L59.5411 56.9361L78.3346 47.8019H84.1092L85.1591 51.6866L83.4792 54.8363L85.1591 58.721L82.4293 61.7657L66.7855 65.3355L59.9611 69.6401L52.0867 72.9998L34.6581 73.4198L22.5841 71.005L12.085 56.3062L32.1383 42.0273Z" fill="white"/>
<path d="M70.9156 52.8561C70.124 52.8561 69.4836 52.2156 69.4836 51.424V50.8801C69.4836 49.2045 67.0939 47.5624 64.6602 47.5624H58.8017C58.0101 47.5624 57.3697 46.922 57.3697 46.1303C57.3697 45.3387 58.0101 44.6982 58.8017 44.6982H64.6602C68.2971 44.6982 72.3478 47.2369 72.3478 50.8801V51.424C72.3478 52.2135 71.7052 52.8561 70.9156 52.8561Z" fill="#00485A"/>
<path d="M65.1876 35.3834C65.1477 35.3834 65.1078 35.3834 65.07 35.3792C64.2805 35.3141 63.6946 34.6233 63.7597 33.8359L64.4758 25.0922C64.4695 20.1576 60.6541 16.0461 55.9631 16.0461H48.6283C43.9373 16.0461 40.1198 20.1555 40.1198 25.2077L40.8317 33.8338C40.8968 34.6212 40.311 35.3121 39.5214 35.3771C38.7382 35.4422 38.0431 34.8564 37.978 34.0669L37.262 25.3232C37.2578 18.5743 42.3583 13.1777 48.6305 13.1777H55.9652C62.2374 13.1777 67.3378 18.5743 67.3378 25.2056L66.6176 34.0669C66.5525 34.8186 65.9268 35.3834 65.1876 35.3834Z" fill="#00485A"/>
<path d="M52.2943 48.9924C50.5956 48.9924 48.8841 48.7194 47.345 48.2029C46.5953 47.9509 46.19 47.1382 46.4441 46.3886C46.6961 45.639 47.5087 45.2379 48.2562 45.4857C49.5056 45.9056 50.9021 46.1282 52.2943 46.1282C55.5407 46.1282 58.5454 44.9523 60.1329 43.0604C62.2978 40.4776 63.7531 36.7924 63.7531 33.8925V28.1201C63.7531 27.3683 63.5997 26.8644 63.2953 26.6313C62.2159 25.7914 58.7849 26.6628 55.759 27.4292C52.9915 28.1327 50.1335 28.8592 47.5423 28.8592C44.3191 28.8592 42.1479 27.7001 40.8481 26.9022C40.8376 27.2235 40.8334 27.6224 40.8334 28.1201V33.8925C40.8334 35.9818 41.6124 38.5835 42.9164 40.8493C43.3112 41.5359 43.076 42.4094 42.3893 42.8042C41.7027 43.199 40.8292 42.9638 40.4323 42.2771C38.8659 39.5558 37.965 36.4984 37.965 33.8925V28.1201C37.965 25.6843 38.0197 24.2753 39.1536 23.6516C40.1636 23.0847 41.1211 23.6936 41.9631 24.2207C43.0823 24.9283 44.7748 25.993 47.5403 25.993C49.7724 25.993 52.456 25.3105 55.0514 24.6512C59.2468 23.5865 62.8648 22.6647 65.0528 24.3677C66.0902 25.174 66.6173 26.436 66.6173 28.1201V33.8925C66.6173 37.4727 64.9332 41.7942 62.3273 44.9019C60.177 47.4637 56.4247 48.9924 52.2943 48.9924Z" fill="#00485A"/>
<path d="M65.3663 66.7364C64.7112 66.7364 64.1189 66.2828 63.9698 65.6172C63.7976 64.8444 64.2827 64.078 65.0554 63.9058L82.0557 60.0988C82.6878 59.9875 83.1812 59.6726 83.5109 59.2022C83.8405 58.7339 83.9687 58.1628 83.8679 57.5979C83.7356 56.8462 83.2085 56.2162 82.4946 55.9496C81.7512 55.6745 81.3732 54.8513 81.6483 54.108C81.9234 53.3668 82.7507 52.9846 83.4878 53.2639C85.155 53.8812 86.3813 55.3532 86.6879 57.1024C86.9188 58.4211 86.6228 59.7523 85.8543 60.8485C85.0858 61.9446 83.935 62.6753 82.6142 62.9084L65.6813 66.7007C65.5763 66.7259 65.4692 66.7364 65.3663 66.7364Z" fill="#00485A"/>
<path d="M45.9846 74.7785H35.1033C34.9983 74.7785 34.8955 74.768 34.7926 74.7449L21.9017 71.8807C21.1289 71.7085 20.6417 70.9442 20.8139 70.1715C20.984 69.3987 21.7484 68.9179 22.5212 69.0837L35.2608 71.9143H45.9846C51.5744 71.9143 57.0571 69.9909 61.4247 66.4989C61.4625 66.4674 61.5045 66.4401 61.5444 66.4128L82.7463 52.7786C82.8156 52.7345 82.8871 52.6946 82.9627 52.6631C83.4918 52.4384 83.8991 52.0226 84.1154 51.4914C84.3317 50.958 84.3255 50.3742 84.1029 49.8472C83.6388 48.7553 82.3746 48.245 81.2848 48.707L60.0031 57.4801C59.8309 57.5515 59.644 57.5872 59.4572 57.5872H32.2413C31.7247 57.5872 31.248 57.31 30.996 56.8606C30.742 56.4113 30.7482 55.859 31.0149 55.418L35.3112 48.2555C35.5694 47.8251 36.0356 47.5605 36.5396 47.5605H42.27C44.9347 47.5605 47.1794 45.7315 47.8178 43.2621H32.7095L13.1685 57.5935C12.5302 58.0617 11.6356 57.9189 11.1653 57.2848C10.6991 56.6464 10.8355 55.7498 11.4739 55.2816L31.3929 40.6751C31.6386 40.4945 31.9347 40.3979 32.2391 40.3979H49.4283C50.22 40.3979 50.8605 41.0384 50.8605 41.83C50.8605 46.5694 47.0051 50.4246 42.2658 50.4246H37.348L34.7694 54.7209H59.1716L80.1782 46.0612C82.7106 44.984 85.6588 46.1809 86.7381 48.7238C87.261 49.9564 87.2736 51.3192 86.7718 52.5602C86.2867 53.7613 85.3775 54.7104 84.2037 55.2459L63.1571 68.7793C58.2939 72.6472 52.2001 74.7785 45.9846 74.7785Z" fill="#00485A"/>
<path d="M15.4972 82.8838C15.4216 82.8838 15.344 82.8775 15.2684 82.8649C14.8925 82.804 14.5586 82.5961 14.336 82.2896L0.271385 62.7779C0.0488032 62.4714 -0.0436304 62.085 0.0193646 61.7112C0.0802597 61.3375 0.28809 61.0015 0.594665 60.7789L9.89062 54.0783C10.5353 53.6206 11.4277 53.7613 11.8897 54.4038L25.9543 73.9133C26.4184 74.5559 26.2735 75.4504 25.6309 75.9145L16.3371 82.6171C16.0894 82.7893 15.7954 82.8838 15.4972 82.8838ZM3.42944 62.2656L15.8206 79.4506L22.7921 74.4257L10.4009 57.2386L3.42944 62.2656Z" fill="#00485A"/>
<path d="M19.3466 73.3462C19.3466 74.9274 18.0636 76.2104 16.4824 76.2104C14.9013 76.2104 13.6182 74.9274 13.6182 73.3462C13.6182 71.763 14.9013 70.48 16.4824 70.48C18.0657 70.48 19.3466 71.763 19.3466 73.3462Z" fill="#00485A"/>
<path d="M52.2944 8.88562C51.5028 8.88562 50.8622 8.24517 50.8622 7.45354V1.7231C50.8622 0.931464 51.5028 0.291016 52.2944 0.291016C53.086 0.291016 53.7264 0.931464 53.7264 1.7231V7.45354C53.7243 8.24307 53.0839 8.88562 52.2944 8.88562Z" fill="#00485A"/>
<path d="M58.0228 8.88533C57.6553 8.88533 57.29 8.74674 57.0107 8.46536C56.4522 7.90681 56.4522 6.99968 57.0107 6.44112L62.0251 1.42673C62.5857 0.868174 63.4908 0.868174 64.0493 1.42673C64.61 1.98738 64.61 2.89241 64.0493 3.45307L59.037 8.46536C58.7557 8.74464 58.3903 8.88533 58.0228 8.88533Z" fill="#00485A"/>
<path d="M46.5643 8.88559C46.1968 8.88559 45.8314 8.747 45.5521 8.46563L41.2538 4.16937C40.6952 3.61082 40.6952 2.70369 41.2538 2.14304C41.8123 1.58448 42.7194 1.58448 43.2801 2.14304L47.5784 6.44139C48.137 7.00205 48.137 7.90707 47.5784 8.46563C47.297 8.74491 46.9296 8.88559 46.5643 8.88559Z" fill="#00485A"/>
</svg>
