<svg width="82" height="82" viewBox="0 0 82 82" fill="none" xmlns="http://www.w3.org/2000/svg">
<rect x="1.43298" y="41.3564" width="8.10553" height="31.7467" fill="#FFCC34"/>
<rect x="12.4095" y="18.897" width="5.23482" height="3.8839" fill="#FFCC34"/>
<rect x="22.7114" y="1.67285" width="45.7625" height="4.3905" fill="#FFCC34"/>
<rect x="62.9005" y="20.5864" width="7.26121" height="4.3905" fill="#FFCC34"/>
<rect x="62.9005" y="38.9937" width="7.26121" height="7.59894" fill="white"/>
<path d="M22.5404 6.90771H68.4718V12.6491H22.5404V6.90771Z" fill="white"/>
<path d="M42.1295 12.6494H50.2351V20.5861H42.1295V12.6494Z" fill="#00728F"/>
<path d="M62.5641 25.9902H70.6696V31.0562H62.5641V25.9902Z" fill="white"/>
<path d="M79.7061 45.9314H78.3552V44.1042C78.3586 42.8496 78.0326 41.6169 77.4095 40.5277C78.0326 39.4385 78.3586 38.2058 78.3552 36.9511V36.7924C78.4362 32.9777 75.4152 29.8149 71.6006 29.7203V22.9657C71.6006 20.7282 69.7853 18.9129 67.5478 18.9129H64.846C62.6085 18.9129 60.7932 20.7282 60.7932 22.9657V29.7203C56.9785 29.8149 53.9575 32.9777 54.0386 36.7924V36.9511C54.0352 38.2058 54.3611 39.4385 54.9843 40.5277C54.3611 41.6169 54.0352 42.8496 54.0386 44.1042V45.9314H51.3367V13.5092H68.8987C69.6451 13.5092 70.2497 12.9047 70.2497 12.1583V1.35092C70.2497 0.604538 69.6451 0 68.8987 0H22.9674C22.221 0 21.6164 0.604538 21.6164 1.35092V12.1583C21.6164 12.9047 22.221 13.5092 22.9674 13.5092H40.5294V45.9314H37.8275V36.4749C37.8275 33.4911 35.4077 31.0712 32.4238 31.0712V25.6675H33.7748C36.0122 25.6675 37.8275 23.8522 37.8275 21.6148V20.2638C37.8275 18.0264 36.0122 16.2111 33.7748 16.2111H17.5637C17.5012 16.2195 17.4387 16.2313 17.3779 16.2482C17.3306 16.2448 17.2834 16.2448 17.2361 16.2482L11.8324 17.5991C11.2296 17.7494 10.8091 18.2915 10.8091 18.9129V22.9657C10.8091 23.5854 11.2312 24.1258 11.8324 24.2761L17.2361 25.627C17.3442 25.654 17.4539 25.6675 17.5637 25.6675H18.9146V27.8104L16.6079 30.1171C16.0709 30.6355 16.0557 31.49 16.5741 32.027C17.0925 32.564 17.947 32.5792 18.484 32.0608C18.4958 32.0506 18.5059 32.0388 18.5178 32.027L21.2196 29.3251C21.4729 29.0719 21.6148 28.7291 21.6148 28.3694V25.6675H24.3166V31.0712C21.3328 31.0712 18.9129 33.4911 18.9129 36.4749V40.5277H1.35092C0.604538 40.5277 0 41.1322 0 41.8786V74.3007C0 75.0471 0.604538 75.6517 1.35092 75.6517H13.5092V79.7044C13.5092 80.4508 14.1138 81.0554 14.8601 81.0554H79.7044C80.4508 81.0554 81.0554 80.4508 81.0554 79.7044V47.2823C81.057 46.5359 80.4525 45.9314 79.7061 45.9314ZM16.2128 22.5857L13.5109 21.9103V19.9683L16.2128 19.2929V22.5857ZM8.10723 72.9498H2.70354V70.248H4.05446C4.80084 70.248 5.40538 69.6434 5.40538 68.897C5.40538 68.1507 4.80084 67.5461 4.05446 67.5461H2.70354V64.8443H4.05446C4.80084 64.8443 5.40538 64.2397 5.40538 63.4934C5.40538 62.747 4.80084 62.1424 4.05446 62.1424H2.70354V59.4406H4.05446C4.80084 59.4406 5.40538 58.836 5.40538 58.0897C5.40538 57.3433 4.80084 56.7387 4.05446 56.7387H2.70354V54.0369H4.05446C4.80084 54.0369 5.40538 53.4324 5.40538 52.686C5.40538 51.9396 4.80084 51.3351 4.05446 51.3351H2.70354V48.6332H4.05446C4.80084 48.6332 5.40538 48.0287 5.40538 47.2823C5.40538 46.5359 4.80084 45.9314 4.05446 45.9314H2.70354V43.2295H8.10723V72.9498ZM63.495 22.9657C63.495 22.2193 64.0996 21.6148 64.846 21.6148H67.5478C68.2942 21.6148 68.8987 22.2193 68.8987 22.9657V24.3166H63.495V22.9657ZM63.495 27.0184H68.8987V29.7203H63.495V27.0184ZM56.7404 44.1026C56.7421 43.1046 57.0748 42.1353 57.6861 41.345C58.0542 40.862 58.0542 40.1916 57.6861 39.707C57.0748 38.9167 56.7421 37.9474 56.7404 36.9494V36.7907C56.6594 34.4671 58.4696 32.5133 60.7932 32.4204H71.6006C73.9242 32.5133 75.7344 34.4671 75.6534 36.7907V36.9494C75.6517 37.9474 75.319 38.9167 74.7077 39.707C74.3396 40.1899 74.3396 40.8603 74.7077 41.345C75.319 42.1336 75.6517 43.1046 75.6534 44.1026V45.9297H71.6006V41.8769C71.6006 38.8931 69.1807 36.4732 66.1969 36.4732C63.213 36.4732 60.7932 38.8931 60.7932 41.8769V45.9297H56.7404V44.1026ZM68.8987 41.8786V45.9314H63.495V41.8786C63.495 40.3858 64.7041 39.1768 66.1969 39.1768C67.6897 39.1768 68.8987 40.3858 68.8987 41.8786ZM24.3183 2.70184H67.5478V5.40369H24.3183V2.70184ZM24.3183 10.8074V8.10553H67.5478V10.8074H24.3183ZM43.2312 18.9129V13.5092H48.6349V18.9129H43.2312ZM48.6349 21.6148V45.9314H43.2312V21.6148H48.6349ZM40.5294 48.6332H51.3367V62.8179C51.3367 63.9375 50.4299 64.8443 49.3104 64.8443C48.1908 64.8443 47.284 63.9375 47.284 62.8179V52.686C47.284 51.9396 46.6794 51.3351 45.9331 51.3351C45.1867 51.3351 44.5821 51.9396 44.5821 52.686V62.8179C44.5838 63.9375 43.6787 64.846 42.5591 64.8477C42.3953 64.8477 42.2315 64.8291 42.0728 64.7902C41.1288 64.5099 40.4939 63.6268 40.5294 62.644V48.6332ZM18.9146 22.9657V18.9129H33.7748C34.5211 18.9129 35.1257 19.5175 35.1257 20.2638V21.6148C35.1257 22.3611 34.5211 22.9657 33.7748 22.9657H18.9146ZM29.722 25.6675V31.0712H27.0201V25.6675H29.722ZM21.6164 36.4749C21.6164 34.9821 22.8255 33.7731 24.3183 33.7731H32.4238C33.9166 33.7731 35.1257 34.9821 35.1257 36.4749V45.9314H32.4238V41.8786C32.4238 41.1322 31.8193 40.5277 31.0729 40.5277H21.6164V36.4749ZM10.8091 72.9498V43.2295H29.722V66.1952H27.0201V47.2823C27.0201 46.5359 26.4156 45.9314 25.6692 45.9314H20.2655C19.5191 45.9314 18.9146 46.5359 18.9146 47.2823V72.9498H10.8091ZM78.3552 78.3535H16.2128V75.6517H20.2655C21.0119 75.6517 21.6164 75.0471 21.6164 74.3007V48.6332H24.3183V67.5461C24.3183 68.2925 24.9228 68.897 25.6692 68.897H31.0729C31.8193 68.897 32.4238 68.2925 32.4238 67.5461V48.6332H37.8275V62.644C37.7887 64.8949 39.3051 66.8757 41.4868 67.4279C43.0775 67.7927 44.7426 67.3148 45.8976 66.1614L45.9331 66.1243C47.3448 67.5799 49.5332 67.9615 51.3553 67.0699C51.4583 69.6721 53.6502 71.6985 56.2541 71.5972C57.4412 71.5499 58.5676 71.0568 59.4068 70.2159L59.444 70.177C61.2643 72.043 64.2533 72.0785 66.1192 70.2564C66.1462 70.2294 66.1732 70.2041 66.1986 70.177C68.0189 72.043 71.0079 72.0785 72.8738 70.2564C72.9008 70.2294 72.9279 70.2041 72.9532 70.177C74.3598 71.6293 76.5416 72.0109 78.3569 71.1227V78.3535H78.3552ZM78.3552 66.8707C78.3552 67.9902 77.4484 68.897 76.3288 68.897C75.2092 68.897 74.3024 67.9902 74.3024 66.8707V56.7387C74.3024 55.9924 73.6979 55.3878 72.9515 55.3878C72.2051 55.3878 71.6006 55.9924 71.6006 56.7387V66.8707C71.6006 67.9902 70.6938 68.897 69.5742 68.897C68.4546 68.897 67.5478 67.9902 67.5478 66.8707V56.7387C67.5478 55.9924 66.9433 55.3878 66.1969 55.3878C65.4505 55.3878 64.846 55.9924 64.846 56.7387V66.8707C64.846 67.9902 63.9392 68.897 62.8196 68.897C61.7 68.897 60.7932 67.9902 60.7932 66.8707V56.7387C60.7932 55.9924 60.1887 55.3878 59.4423 55.3878C58.6959 55.3878 58.0914 55.9924 58.0914 56.7387V66.8707C58.0914 67.9902 57.1845 68.897 56.065 68.897C54.9454 68.897 54.0386 67.9902 54.0386 66.8707V48.6332H78.3552V66.8707Z" fill="#00485A"/>
</svg>
