<svg width="172" height="66" viewBox="0 0 172 66" fill="none" xmlns="http://www.w3.org/2000/svg">
<g clip-path="url(#clip0_1_1321)">
<path fill-rule="evenodd" clip-rule="evenodd" d="M30.4349 35.8459C13.2067 20.9114 0.219068 33.1348 0 50.9388C11.8766 37.6532 22.9709 44.1533 30.4349 35.8459ZM31.4989 38.7471C29.3395 65.5879 12.7373 43.8046 0.657205 53.2059C7.38574 43.3765 20.2169 46.5473 31.4989 38.7471Z" fill="#00728F"/>
<path fill-rule="evenodd" clip-rule="evenodd" d="M34.2373 41.4106C31.4833 47.8315 33.1263 53.3645 39.7453 56.9633C44.0327 59.2939 48.5236 61.8939 52.7485 65.3659C45.5506 58.1999 43.7667 45.929 34.2373 41.4106ZM36.9443 40.285C51.8879 38.874 62.2624 51.7315 56.3632 66.0001C47.8039 58.9609 47.663 46.4046 36.9443 40.285Z" fill="#00728F"/>
<path fill-rule="evenodd" clip-rule="evenodd" d="M31.5458 32.9604C32.1091 26.4602 29.762 21.1809 26.0691 16.4247C23.4403 13.0319 22.5953 7.57819 23.5498 0C14.036 13.0161 17.9949 25.3505 31.5458 32.9604ZM24.52 1.31588C27.5557 8.41845 31.6397 14.332 36.5375 19.2784C39.3071 22.0528 37.8675 26.4761 34.7536 32.0884C34.9727 20.7211 22.2824 13.8088 24.52 1.31588Z" fill="#00728F"/>
<path d="M59.6336 35.7503V34.8625C58.507 34.7198 57.8185 34.2759 57.1613 32.8332C56.4728 31.2637 55.9408 29.7575 55.5652 28.949C54.7672 27.1733 53.7814 26.4916 52.4513 26.1428V26.0636C52.8269 25.8258 53.9379 25.0331 54.7672 23.1464C55.8625 20.6574 56.3163 20.1976 57.2708 20.1976H57.7559C58.2097 20.1976 58.773 19.8805 58.773 19.2781C58.773 18.5488 58.2097 18.0098 57.2865 18.0098C56.0816 18.0415 55.3149 18.8183 54.5638 20.6891C53.7188 22.8452 53.2337 23.8757 52.5139 24.6843C51.7159 25.5245 50.8396 25.8258 49.6973 25.8258V22.0367C49.6973 19.6586 49.8851 19.4683 51.6377 19.3098V18.422H44.3615V19.3098C46.1453 19.4683 46.3331 19.6586 46.3331 22.0367V32.1039C46.3331 34.5137 46.1453 34.6881 44.3615 34.8625V35.7503H51.6377V34.8625C49.8851 34.704 49.6973 34.5137 49.6973 32.0881V26.7928C50.9961 26.7611 51.622 27.4429 52.2792 29.5197C52.7799 31.0893 53.2337 32.5478 53.5623 33.293C54.2352 34.9418 54.955 35.7503 56.7858 35.7503H59.6336V35.7503ZM61.0107 18.422V19.3098C62.6693 19.5 62.8414 19.722 62.8414 21.9257V32.3417C62.8414 34.5613 62.6537 34.7674 60.8698 34.9576V35.7345H68.4433V34.9576C66.3622 34.7674 66.2057 34.5454 66.2057 32.3417V28.5368L67.7548 28.9648C68.0521 28.9648 68.3181 28.9648 68.6937 28.9173C71.4946 28.5685 73.92 26.888 73.92 23.3842C73.92 21.5769 73.2002 20.2293 71.9954 19.4208C70.9626 18.7232 69.6482 18.422 67.5984 18.422H61.0107V18.422ZM66.2057 20.4988C66.2057 20.0708 66.2526 19.7695 66.4717 19.6427C66.6282 19.5 66.8786 19.4049 67.3167 19.4049C68.7093 19.4049 70.2428 20.3561 70.2428 23.5111C70.2428 27.1575 68.2243 27.7758 67.4419 27.7758C66.9411 27.7758 66.5343 27.6648 66.1901 27.538V20.4988H66.2057ZM92.4313 35.7503V34.8625C90.6005 34.704 90.4128 34.4503 90.4128 32.0881V21.9732C90.4128 19.7061 90.6318 19.4842 92.4626 19.3256V18.4378H86.7668V18.7549C86.7668 18.9927 86.7199 19.2622 86.5321 19.611L80.8833 32.8966H80.8363C80.9772 29.8685 80.9772 28.3307 80.9772 27.1733V22.1318C80.9772 19.722 81.1962 19.4842 82.9488 19.3256V18.4378H75.5631V19.3256C77.4251 19.4842 77.6442 19.7537 77.6442 22.1635V32.0405C77.6442 34.4662 77.4564 34.7198 75.5944 34.8784V35.7662H81.3214V35.4491C81.3214 35.132 81.3214 34.7991 81.5092 34.371L87.1267 21.0379H87.205C87.0954 23.8916 87.0954 25.255 87.0954 26.1111V32.1039C87.0954 34.482 86.9077 34.7198 85.1551 34.8784V35.7662H92.4313V35.7503ZM107.563 31.1368C106.42 33.5466 105.09 34.9893 103.197 34.9893C100.318 34.9893 98.1584 31.6442 98.1584 26.8087C98.1584 22.7818 100.052 19.1354 103.056 19.1354C104.809 19.1354 106.327 20.0549 107.156 22.972L108.063 22.7818C107.923 21.3232 107.797 20.1025 107.61 18.6281C106.89 18.4695 105.262 18.0573 103.588 18.0573C97.908 18.0573 94.2934 21.8623 94.2934 27.3477C94.2934 31.5649 96.6875 36.0991 102.931 36.0991C104.59 36.0991 106.561 35.6393 107.218 35.4491C107.625 34.5296 108.157 32.643 108.47 31.4539L107.563 31.1368ZM123.257 22.655C123.148 21.0061 123.023 18.85 122.991 17.7402H122.35C121.943 18.2476 121.599 18.422 120.988 18.422H111.772C111.052 18.422 110.755 18.2793 110.364 17.7402H109.722C109.691 19.0878 109.534 20.9586 109.425 22.7342H110.332C110.63 21.5452 110.896 20.6574 111.271 20.1976C111.678 19.6903 112.226 19.5 113.697 19.5H114.651V32.2625C114.651 34.482 114.432 34.6881 112.445 34.8466V35.7345H120.331V34.8466C118.25 34.6881 118.047 34.4662 118.047 32.2625V19.5H119.252C120.316 19.5 120.988 19.6427 121.411 20.0866C121.818 20.5464 122.084 21.3549 122.397 22.7025L123.257 22.655ZM140.282 35.7503V34.8625C138.811 34.704 138.498 34.4027 137.669 32.0088C136.042 27.3636 134.602 22.7501 133.037 18.0732L131.785 18.3744L126.778 32.3576C126.058 34.4027 125.651 34.704 124.134 34.8625V35.7503H129.642V34.8625C127.858 34.6247 127.748 34.2918 128.155 32.8649C128.452 31.8185 128.734 30.9149 128.953 30.249H133.507C133.82 31.1368 134.148 32.2149 134.383 33.0234C134.805 34.3393 134.68 34.6723 133.256 34.8625V35.7503H140.282ZM133.084 28.8697H129.36C130.002 26.9197 130.534 25.0172 131.222 23.0196H131.3L133.084 28.8697ZM155.867 35.7503V34.8625C154.083 34.704 153.896 34.4503 153.896 32.0564V21.6086C153.896 19.6586 154.083 19.4683 155.867 19.3098V18.422H142.708V19.3098C144.57 19.4525 144.992 19.7378 144.992 20.8793C144.992 25.6038 144.413 29.4563 143.427 31.9454C142.864 33.3564 142.222 34.4503 141.033 35.3698V35.9406C141.346 36.0833 141.941 36.1784 142.582 36.1784C143.193 36.1784 143.709 35.7662 144.21 34.8466C145.728 32.199 146.4 26.6977 146.4 20.483C146.4 19.6744 146.51 19.4842 147.339 19.4842H149.686C150.484 19.4842 150.516 19.5951 150.516 20.8318V32.0405C150.516 34.4503 150.328 34.6881 148.544 34.8466V35.7345H155.867V35.7503ZM172 35.7503V34.8625C170.216 34.704 170.028 34.4503 170.028 32.0564V21.6086C170.028 19.6586 170.216 19.4683 172 19.3098V18.422H158.84V19.3098C160.702 19.4525 161.125 19.7378 161.125 20.8793C161.125 25.6038 160.546 29.4563 159.56 31.9454C158.997 33.3564 158.355 34.4503 157.166 35.3698V35.9406C157.479 36.0833 158.074 36.1784 158.715 36.1784C159.325 36.1784 159.842 35.7662 160.343 34.8466C161.86 32.199 162.533 26.6977 162.533 20.483C162.533 19.6744 162.643 19.4842 163.472 19.4842H165.819C166.617 19.4842 166.649 19.5951 166.649 20.8318V32.0405C166.649 34.4503 166.461 34.6881 164.677 34.8466V35.7345H172V35.7503Z" fill="#00728F"/>
<path d="M51.1681 7.53059C51.1055 6.86472 51.0585 5.75495 51.0429 5.48543H45.3158V5.91349C46.2234 5.99276 46.3173 6.10373 46.3173 7.37205V12.4612C46.3173 13.5868 46.2234 13.6978 45.3158 13.777V14.221H49.1808V13.777C48.1167 13.6978 48.0385 13.5868 48.0385 12.4612V6.48423C48.0385 6.02446 48.0385 6.02446 48.5079 6.02446H49.1651C49.8223 6.02446 50.0727 6.13544 50.2761 6.46837C50.4483 6.73789 50.5421 7.08668 50.7143 7.57815L51.1681 7.53059ZM51.9661 5.48543V5.92934C52.7954 6.02446 52.8893 6.13544 52.8893 7.24522V12.5087C52.8893 13.6185 52.7954 13.7295 51.8878 13.8246V14.221H55.7059V13.8405C54.6575 13.7453 54.5793 13.6344 54.5793 12.5246V10.5904L55.3616 10.8124C55.5025 10.8124 55.6433 10.8124 55.8311 10.7806C57.2394 10.6063 58.4599 9.766 58.4599 7.99035C58.4599 7.07082 58.1 6.3891 57.4897 5.99276C56.989 5.62811 56.3318 5.48543 55.2991 5.48543H51.9661ZM54.5949 6.53179C54.5949 6.30983 54.6262 6.16715 54.7357 6.10373C54.814 6.04032 54.9392 5.9769 55.1739 5.9769C55.878 5.9769 56.6604 6.45252 56.6604 8.05377C56.6604 9.89283 55.6433 10.2099 55.2521 10.2099C55.0018 10.2099 54.7983 10.1623 54.6262 10.0831V6.53179H54.5949ZM66.7845 5.48543H64.0618V5.92934L64.5469 6.04032C64.9381 6.13544 64.9694 6.29398 64.7816 6.86472C64.3904 8.16475 63.9679 9.24282 63.5298 10.4636L61.9806 6.65862C61.8242 6.27813 61.8398 6.11959 62.1058 6.04032L62.5283 5.92934V5.48543H58.945V5.92934C59.7587 6.05617 59.8838 6.21471 60.1186 6.73789C60.4472 7.41961 61.9181 10.8282 62.231 11.5416C62.4344 12.0173 62.5283 12.3185 62.5283 12.5563C62.5283 13.0636 62.1684 13.4917 61.8555 13.4917C61.6677 13.4917 61.433 13.3807 61.2452 13.2539C60.9479 13.0795 60.7132 13.0636 60.5098 13.2063C60.3376 13.3014 60.1968 13.5234 60.1968 13.777C60.1812 14.2527 60.6819 14.5697 61.167 14.5697C61.8555 14.5697 62.5753 14.221 63.342 12.366C63.7801 11.3514 64.9224 8.33914 65.3762 7.22936C65.7674 6.27813 65.9082 6.08788 66.7845 5.92934V5.48543V5.48543ZM75.5003 14.2368V13.777C74.5927 13.6978 74.4832 13.5868 74.4832 12.3343V7.3562C74.4832 6.11959 74.5927 6.00861 75.5159 5.92934V5.48543H67.1913V5.92934C68.1615 6.00861 68.2554 6.11959 68.2554 7.34034V12.3343C68.2554 13.5868 68.1615 13.6978 67.2383 13.777V14.221H70.8999V13.777C70.0862 13.6978 69.9923 13.5868 69.9923 12.3343V6.53179C69.9923 6.05617 70.0236 6.02446 70.4774 6.02446H72.3081C72.7619 6.02446 72.7776 6.04032 72.7776 6.5635V12.3343C72.7776 13.5868 72.6837 13.6978 71.8387 13.777V14.221H75.5003V14.2368ZM84.6699 14.2368V13.777C83.7623 13.6978 83.6528 13.5868 83.6528 12.3343V7.3562C83.6528 6.11959 83.7623 6.00861 84.6855 5.92934V5.48543H76.3609V5.92934C77.3311 6.00861 77.425 6.11959 77.425 7.34034V12.3343C77.425 13.5868 77.3311 13.6978 76.4079 13.777V14.221H80.0694V13.777C79.2557 13.6978 79.1619 13.5868 79.1619 12.3343V6.53179C79.1619 6.05617 79.1932 6.02446 79.6469 6.02446H81.4777C81.9315 6.02446 81.9472 6.04032 81.9472 6.5635V12.3343C81.9472 13.5868 81.8533 13.6978 81.0083 13.777V14.221H84.6699V14.2368ZM93.4326 14.2368V13.777C92.6972 13.6978 92.525 13.5392 92.1182 12.3343C91.3045 9.98795 90.5691 7.65742 89.771 5.31104L89.1451 5.45372L86.6102 12.5087C86.2503 13.5392 86.0469 13.6978 85.2801 13.777V14.221H88.0654V13.777C87.1579 13.6502 87.1109 13.4917 87.3143 12.7624C87.4552 12.2234 87.6116 11.7794 87.7212 11.4465H90.0214C90.1779 11.8904 90.35 12.4453 90.4595 12.8575C90.6786 13.5234 90.6004 13.6819 89.8962 13.777V14.221H93.4326V14.2368ZM89.8023 10.7489H87.9246C88.2532 9.766 88.5192 8.79891 88.8635 7.80011H88.9104L89.8023 10.7489Z" fill="#00728F"/>
</g>
<defs>
<clipPath id="clip0_1_1321">
<rect width="172" height="66" fill="white"/>
</clipPath>
</defs>
</svg>
