<svg width="248" height="84" viewBox="0 0 248 84" fill="none" xmlns="http://www.w3.org/2000/svg">
<g clip-path="url(#clip0_1_700)">
<path fill-rule="evenodd" clip-rule="evenodd" d="M43.8828 45.6218C19.0422 26.6143 0.315866 42.1714 0 64.831C17.1245 47.9221 33.1208 56.1949 43.8828 45.6218ZM45.417 49.3143C42.3035 83.4753 18.3654 55.751 0.947598 67.7164C10.6492 55.2062 29.1499 59.2418 45.417 49.3143Z" fill="white"/>
<path fill-rule="evenodd" clip-rule="evenodd" d="M49.3652 52.7041C45.3943 60.8761 47.7633 67.9181 57.307 72.4985C63.489 75.4646 69.9642 78.7738 76.0559 83.1927C65.6775 74.0723 63.1054 58.4548 49.3652 52.7041ZM53.2684 51.2715C74.815 49.4756 89.7735 65.8398 81.2677 83.9998C68.9264 75.0409 68.7233 59.0601 53.2684 51.2715Z" fill="white"/>
<path fill-rule="evenodd" clip-rule="evenodd" d="M45.4846 41.9496C46.2968 33.6767 42.9126 26.9575 37.588 20.9042C33.7976 16.5861 32.5792 9.64497 33.9555 0C20.2379 16.5659 25.946 32.2642 45.4846 41.9496ZM35.3543 1.67475C39.7313 10.7144 45.62 18.2407 52.6819 24.5361C56.6753 28.0673 54.5996 33.6968 50.1098 40.8398C50.4257 26.3723 32.128 17.5748 35.3543 1.67475Z" fill="white"/>
<path d="M85.9833 45.501V44.3711C84.3589 44.1895 83.3662 43.6245 82.4186 41.7883C81.4258 39.7907 80.6587 37.8738 80.1172 36.8448C78.9666 34.5849 77.5452 33.7172 75.6274 33.2733V33.1724C76.1689 32.8698 77.7708 31.8609 78.9666 29.4597C80.5459 26.2918 81.2002 25.7067 82.5765 25.7067H83.2759C83.9302 25.7067 84.7424 25.3031 84.7424 24.5363C84.7424 23.6082 83.9302 22.9221 82.5991 22.9221C80.8618 22.9625 79.7563 23.9512 78.6733 26.3322C77.4549 29.0763 76.7555 30.3879 75.7177 31.417C74.567 32.4864 73.3036 32.8698 71.6565 32.8698V28.0473C71.6565 25.0206 71.9273 24.7785 74.4542 24.5767V23.4467H63.963V24.5767C66.535 24.7785 66.8057 25.0206 66.8057 28.0473V40.8601C66.8057 43.9272 66.535 44.1491 63.963 44.3711V45.501H74.4542V44.3711C71.9273 44.1693 71.6565 43.9272 71.6565 40.84V34.1006C73.5292 34.0602 74.4317 34.9279 75.3793 37.5712C76.1012 39.5688 76.7555 41.4251 77.2293 42.3735C78.1995 44.472 79.2373 45.501 81.8771 45.501H85.9833ZM87.9688 23.4467V24.5767C90.3603 24.8188 90.6085 25.1013 90.6085 27.906V41.1628C90.6085 43.9877 90.3378 44.25 87.7657 44.4921V45.4809H98.6857V44.4921C95.6849 44.25 95.4593 43.9675 95.4593 41.1628V36.3202L97.6929 36.865C98.1216 36.865 98.5052 36.8649 99.0467 36.8044C103.085 36.3605 106.582 34.2217 106.582 29.7624C106.582 27.4621 105.544 25.747 103.807 24.7179C102.318 23.8301 100.423 23.4467 97.4673 23.4467H87.9688ZM95.4593 26.09C95.4593 25.5452 95.527 25.1619 95.8429 25.0004C96.0685 24.8188 96.4295 24.6978 97.0612 24.6978C99.0692 24.6978 101.28 25.9084 101.28 29.9238C101.28 34.5647 98.3698 35.3516 97.2417 35.3516C96.5197 35.3516 95.9331 35.2104 95.4368 35.049V26.09H95.4593ZM133.273 45.501V44.3711C130.633 44.1693 130.363 43.8465 130.363 40.84V27.9666C130.363 25.0811 130.678 24.7987 133.318 24.5969V23.4669H125.106V23.8705C125.106 24.1731 125.038 24.5162 124.767 24.9601L116.622 41.869H116.555C116.758 38.0151 116.758 36.0578 116.758 34.5849V28.1683C116.758 25.1013 117.074 24.7987 119.601 24.5969V23.4669H108.951V24.5969C111.636 24.7987 111.952 25.1417 111.952 28.2087V40.7794C111.952 43.8666 111.681 44.1895 108.996 44.3913V45.5212H117.254V45.1177C117.254 44.7141 117.254 44.2904 117.525 43.7456L125.625 26.7761H125.737C125.579 30.4081 125.579 32.1434 125.579 33.233V40.8601C125.579 43.8868 125.309 44.1895 122.782 44.3913V45.5212H133.273V45.501ZM155.09 39.6293C153.443 42.6963 151.526 44.5325 148.796 44.5325C144.644 44.5325 141.531 40.275 141.531 34.1208C141.531 28.9956 144.261 24.3547 148.593 24.3547C151.119 24.3547 153.308 25.5251 154.504 29.2378L155.812 28.9956C155.609 27.1393 155.429 25.5856 155.158 23.7091C154.12 23.5073 151.774 22.9827 149.36 22.9827C141.17 22.9827 135.958 27.8253 135.958 34.8068C135.958 40.1741 139.41 45.9449 148.412 45.9449C150.804 45.9449 153.646 45.3598 154.594 45.1177C155.181 43.9473 155.948 41.5462 156.399 40.0329L155.09 39.6293ZM177.72 28.8342C177.562 26.7357 177.381 23.9915 177.336 22.5791H176.411C175.825 23.2248 175.328 23.4467 174.448 23.4467H161.159C160.122 23.4467 159.693 23.2651 159.129 22.5791H158.204C158.159 24.2942 157.933 26.6752 157.775 28.9351H159.084C159.512 27.4218 159.896 26.2918 160.437 25.7067C161.024 25.061 161.814 24.8188 163.935 24.8188H165.311V41.0619C165.311 43.8868 164.995 44.1491 162.13 44.3509V45.4809H173.501V44.3509C170.5 44.1491 170.207 43.8666 170.207 41.0619V24.8188H171.944C173.478 24.8188 174.448 25.0004 175.058 25.5654C175.644 26.1506 176.028 27.1796 176.479 28.8947L177.72 28.8342ZM202.267 45.501V44.3711C200.146 44.1693 199.695 43.7859 198.499 40.7391C196.153 34.827 194.077 28.9553 191.821 23.0028L190.016 23.3862L182.796 41.183C181.758 43.7859 181.172 44.1693 178.983 44.3711V45.501H186.925V44.3711C184.353 44.0684 184.195 43.6447 184.782 41.8287C185.21 40.4969 185.617 39.3468 185.932 38.4993H192.498C192.949 39.6293 193.423 41.0014 193.761 42.0305C194.371 43.7052 194.19 44.1289 192.137 44.3711V45.501H202.267ZM191.889 36.7439H186.519C187.444 34.262 188.211 31.8407 189.204 29.2983H189.317L191.889 36.7439ZM224.739 45.501V44.3711C222.167 44.1693 221.896 43.8465 221.896 40.7996V27.5025C221.896 25.0206 222.167 24.7785 224.739 24.5767V23.4467H205.764V24.5767C208.449 24.7583 209.058 25.1215 209.058 26.5743C209.058 32.5873 208.224 37.4905 206.802 40.6584C205.99 42.4542 205.065 43.8465 203.35 45.0168V45.7432C203.801 45.9248 204.659 46.0458 205.584 46.0458C206.464 46.0458 207.208 45.5212 207.93 44.3509C210.119 40.9812 211.089 33.9795 211.089 26.0699C211.089 25.0408 211.247 24.7987 212.443 24.7987H215.827C216.978 24.7987 217.023 24.9399 217.023 26.5138V40.7794C217.023 43.8464 216.752 44.1491 214.18 44.3509V45.4809H224.739V45.501ZM248 45.501V44.3711C245.428 44.1693 245.157 43.8465 245.157 40.7996V27.5025C245.157 25.0206 245.428 24.7785 248 24.5767V23.4467H229.026V24.5767C231.71 24.7583 232.32 25.1215 232.32 26.5743C232.32 32.5873 231.485 37.4905 230.063 40.6584C229.251 42.4542 228.326 43.8465 226.611 45.0168V45.7432C227.063 45.9248 227.92 46.0458 228.845 46.0458C229.725 46.0458 230.47 45.5212 231.191 44.3509C233.38 40.9812 234.35 33.9795 234.35 26.0699C234.35 25.0408 234.508 24.7987 235.704 24.7987H239.088C240.239 24.7987 240.284 24.9399 240.284 26.5138V40.7794C240.284 43.8464 240.013 44.1491 237.441 44.3509V45.4809H248V45.501Z" fill="white"/>
<path d="M73.7773 9.58465C73.6871 8.73719 73.6194 7.32474 73.5968 6.98172H65.3392V7.52652C66.6478 7.62741 66.7832 7.76865 66.7832 9.38288V15.8599C66.7832 17.2926 66.6478 17.4338 65.3392 17.5347V18.0997H70.912V17.5347C69.3778 17.4338 69.265 17.2926 69.265 15.8599V8.25292C69.265 7.66777 69.265 7.66777 69.9418 7.66777H70.8894C71.837 7.66777 72.198 7.80901 72.4913 8.23274C72.7395 8.57576 72.8749 9.01968 73.123 9.64519L73.7773 9.58465ZM74.928 6.98172V7.5467C76.1238 7.66777 76.2591 7.80901 76.2591 9.22145V15.9205C76.2591 17.3329 76.1238 17.4742 74.8152 17.5952V18.0997H80.3203V17.6154C78.8086 17.4943 78.6958 17.3531 78.6958 15.9406V13.479L79.8239 13.7615C80.027 13.7615 80.23 13.7615 80.5008 13.7211C82.5313 13.4991 84.2912 12.4297 84.2912 10.1698C84.2912 8.9995 83.7722 8.13185 82.8923 7.62741C82.1704 7.16332 81.2228 6.98172 79.7337 6.98172H74.928ZM78.7184 8.31345C78.7184 8.03096 78.7635 7.84936 78.9214 7.76865C79.0343 7.68794 79.2147 7.60723 79.5532 7.60723C80.5685 7.60723 81.6966 8.21256 81.6966 10.2505C81.6966 12.5911 80.23 12.9947 79.666 12.9947C79.305 12.9947 79.0117 12.9342 78.7635 12.8333V8.31345H78.7184ZM96.2941 6.98172H92.3683V7.5467L93.0677 7.68794C93.6318 7.80901 93.6769 8.01079 93.4062 8.73719C92.8421 10.3918 92.2329 11.7639 91.6012 13.3175L89.3676 8.47488C89.142 7.99061 89.1645 7.78883 89.5481 7.68794L90.1572 7.5467V6.98172H84.9906V7.5467C86.1638 7.70812 86.3443 7.9099 86.6827 8.57576C87.1565 9.44341 89.2773 13.7816 89.7286 14.6896C90.0219 15.295 90.1572 15.6783 90.1572 15.981C90.1572 16.6267 89.6383 17.1715 89.1871 17.1715C88.9163 17.1715 88.5779 17.0302 88.3072 16.8688C87.8785 16.6469 87.5401 16.6267 87.2468 16.8083C86.9986 16.9294 86.7955 17.2118 86.7955 17.5347C86.773 18.14 87.4949 18.5436 88.1944 18.5436C89.1871 18.5436 90.2249 18.0997 91.3305 15.7389C91.9622 14.4475 93.6092 10.6137 94.2635 9.20128C94.8276 7.99061 95.0306 7.74848 96.2941 7.5467V6.98172ZM108.861 18.1198V17.5347C107.552 17.4338 107.395 17.2926 107.395 15.6985V9.3627C107.395 7.78883 107.552 7.64759 108.884 7.5467V6.98172H96.8807V7.5467C98.2795 7.64759 98.4149 7.78883 98.4149 9.34252V15.6985C98.4149 17.2926 98.2795 17.4338 96.9484 17.5347V18.0997H102.228V17.5347C101.055 17.4338 100.919 17.2926 100.919 15.6985V8.31345C100.919 7.70812 100.964 7.66777 101.619 7.66777H104.258C104.913 7.66777 104.935 7.68794 104.935 8.35381V15.6985C104.935 17.2926 104.8 17.4338 103.582 17.5347V18.0997H108.861V18.1198ZM122.082 18.1198V17.5347C120.774 17.4338 120.616 17.2926 120.616 15.6985V9.3627C120.616 7.78883 120.774 7.64759 122.105 7.5467V6.98172H110.102V7.5467C111.501 7.64759 111.636 7.78883 111.636 9.34252V15.6985C111.636 17.2926 111.501 17.4338 110.17 17.5347V18.0997H115.449V17.5347C114.276 17.4338 114.141 17.2926 114.141 15.6985V8.31345C114.141 7.70812 114.186 7.66777 114.84 7.66777H117.48C118.134 7.66777 118.157 7.68794 118.157 8.35381V15.6985C118.157 17.2926 118.021 17.4338 116.803 17.5347V18.0997H122.082V18.1198ZM134.717 18.1198V17.5347C133.657 17.4338 133.408 17.232 132.822 15.6985C131.649 12.7122 130.588 9.74607 129.437 6.75977L128.535 6.94137L124.88 15.9205C124.361 17.232 124.068 17.4338 122.962 17.5347V18.0997H126.978V17.5347C125.67 17.3733 125.602 17.1715 125.895 16.2433C126.098 15.5573 126.324 14.9923 126.482 14.5686H129.798C130.024 15.1335 130.272 15.8398 130.43 16.3644C130.746 17.2118 130.633 17.4136 129.618 17.5347V18.0997H134.717V18.1198ZM129.483 13.6807H126.775C127.249 12.4297 127.632 11.1989 128.129 9.92768H128.197L129.483 13.6807Z" fill="white"/>
</g>
<defs>
<clipPath id="clip0_1_700">
<rect width="248" height="84" fill="white"/>
</clipPath>
</defs>
</svg>
